<?xml version="1.0" encoding="UTF-8" standalone="no"?>
<!-- Created with Inkscape (http://www.inkscape.org/) -->

<svg
   xmlns:dc="http://purl.org/dc/elements/1.1/"
   xmlns:cc="http://creativecommons.org/ns#"
   xmlns:rdf="http://www.w3.org/1999/02/22-rdf-syntax-ns#"
   xmlns:svg="http://www.w3.org/2000/svg"
   xmlns="http://www.w3.org/2000/svg"
   xmlns:sodipodi="http://sodipodi.sourceforge.net/DTD/sodipodi-0.dtd"
   xmlns:inkscape="http://www.inkscape.org/namespaces/inkscape"
   width="150"
   height="36"
   viewBox="0 0 150 36.000002"
   id="svg2"
   version="1.1"
   inkscape:version="0.91 r13725"
   inkscape:export-filename="/home/plunntic/Code/code-wizards/notify-service/assets/images/logo.png"
   inkscape:export-xdpi="90"
   inkscape:export-ydpi="90"
   sodipodi:docname="logo.svg">
  <defs
     id="defs4" />
  <sodipodi:namedview
     id="base"
     pagecolor="#ffffff"
     bordercolor="#666666"
     borderopacity="1.0"
     inkscape:pageopacity="0.0"
     inkscape:pageshadow="2"
     inkscape:zoom="4"
     inkscape:cx="95.647909"
     inkscape:cy="19.474634"
     inkscape:document-units="px"
     inkscape:current-layer="text4270"
     showgrid="false"
     units="px"
     inkscape:window-width="1855"
     inkscape:window-height="1056"
     inkscape:window-x="65"
     inkscape:window-y="24"
     inkscape:window-maximized="1"
     fit-margin-top="0"
     fit-margin-left="0"
     fit-margin-right="0"
     fit-margin-bottom="0" />
  <metadata
     id="metadata7">
    <rdf:RDF>
      <cc:Work
         rdf:about="">
        <dc:format>image/svg+xml</dc:format>
        <dc:type
           rdf:resource="http://purl.org/dc/dcmitype/StillImage" />
        <dc:title></dc:title>
      </cc:Work>
    </rdf:RDF>
  </metadata>
  <g
     inkscape:label="Layer 1"
     inkscape:groupmode="layer"
     id="layer1"
     transform="translate(-0.84549374,-1013.913)">
    <g
       style="font-style:normal;font-variant:normal;font-weight:normal;font-stretch:normal;font-size:20.00000191px;line-height:125%;font-family:Sawasdee;-inkscape-font-specification:'Sawasdee, Normal';text-align:start;letter-spacing:0px;word-spacing:0px;writing-mode:lr-tb;text-anchor:start;fill:#626262;fill-opacity:1;stroke:none;stroke-width:1px;stroke-linecap:butt;stroke-linejoin:miter;stroke-opacity:1"
       id="text4266"
       transform="translate(0,-10.500948)">
      <path
         d="m 13.47244,1046.3876 0.703125,0.4785 q -1.015625,1.3965 -2.578125,2.207 -1.5625,0.8008 -3.3691407,0.8008 -1.5039064,0 -2.871094,-0.5859 -1.3671876,-0.586 -2.3535159,-1.5821 -0.9863282,-0.9961 -1.5722657,-2.373 -0.5859376,-1.377 -0.5859376,-2.8906 0,-1.5137 0.5859376,-2.8907 0.5859375,-1.3769 1.5722657,-2.373 0.9863283,-0.9961 2.3535159,-1.582 1.3671876,-0.586 2.871094,-0.586 1.7968747,0 3.3593757,0.8203 1.5625,0.8106 2.58789,2.2168 l -0.703125,0.5176 q -0.908203,-1.2207 -2.285156,-1.9238 -1.3671877,-0.7129 -2.9589847,-0.7129 -1.7773439,0 -3.2812503,0.8789 -1.4941408,0.8789 -2.3632815,2.3926 -0.8691407,1.5039 -0.8691407,3.291 0,1.3281 0.5078126,2.5391 0.5175781,1.2109 1.3867188,2.0898 0.8691407,0.8789 2.0800784,1.4062 1.2109376,0.5176 2.5390627,0.5176 1.591797,0 2.9589847,-0.7129 1.376953,-0.7129 2.285156,-1.9433 z"
         style="fill:#626262;fill-opacity:1"
         id="path4432"
         inkscape:connector-curvature="0" />
      <path
         d="m 21.060332,1035.6454 q 1.367188,-0.586 2.871094,-0.586 1.503907,0 2.871094,0.586 1.376953,0.5859 2.363282,1.582 0.996094,0.9961 1.582031,2.3731 0.585938,1.3769 0.585938,2.8906 0,1.5137 -0.585938,2.8906 -0.585937,1.3672 -1.582031,2.3633 -0.986329,0.9961 -2.363282,1.582 -1.367187,0.586 -2.871094,0.586 -1.503906,0 -2.871094,-0.586 -1.367187,-0.5859 -2.353516,-1.582 -0.986328,-0.9961 -1.572265,-2.3633 -0.585938,-1.3769 -0.585938,-2.8906 0,-1.5137 0.585938,-2.8906 0.585937,-1.377 1.572265,-2.3731 0.986329,-0.9961 2.353516,-1.582 z m -3.642578,6.8457 q 0,1.3281 0.507812,2.5391 0.517578,1.2109 1.386719,2.0898 0.869141,0.8789 2.080078,1.4062 1.210938,0.5176 2.539063,0.5176 1.337891,0 2.548829,-0.5176 1.210937,-0.5273 2.080078,-1.4062 0.869141,-0.8789 1.386719,-2.0898 0.517578,-1.211 0.517578,-2.5391 0,-1.7871 -0.869141,-3.291 -0.86914,-1.5137 -2.382812,-2.3926 -1.503907,-0.8789 -3.281251,-0.8789 -1.777344,0 -3.28125,0.8789 -1.494141,0.8789 -2.363282,2.3926 -0.86914,1.5039 -0.86914,3.291 z"
         style="fill:#626262;fill-opacity:1"
         id="path4434"
         inkscape:connector-curvature="0" />
      <path
         d="m 35.044709,1048.8876 2.050781,0 q 1.78711,0 3.281251,-0.8399 1.503906,-0.8398 2.373047,-2.3144 0.878906,-1.4746 0.878906,-3.2422 0,-1.7871 -0.878906,-3.2617 -0.869141,-1.4844 -2.373047,-2.3242 -1.494141,-0.8399 -3.281251,-0.8399 l -2.050781,0 0,12.8223 z m -0.878907,0.8789 0,-14.5801 2.929688,0 q 1.503907,0 2.871094,0.5664 1.367188,0.5664 2.363282,1.543 0.996094,0.9668 1.582031,2.3242 0.585938,1.3574 0.585938,2.8711 0,2.0117 -0.996094,3.6914 -0.996094,1.6699 -2.695313,2.6269 -1.699219,0.9571 -3.710938,0.9571 l -2.929688,0 z"
         style="fill:#626262;fill-opacity:1"
         id="path4436"
         inkscape:connector-curvature="0" />
      <path
         d="m 55.200959,1040.8602 0,0.8789 -6.992188,0 0,7.1485 7.558595,0 0,0.8789 -8.437501,0 0,-14.5801 8.476563,0 0,0.8789 -7.597657,0 0,4.7949 6.992188,0 z"
         style="fill:#626262;fill-opacity:1"
         id="path4438"
         inkscape:connector-curvature="0" />
    </g>
    <g
       style="font-style:normal;font-variant:normal;font-weight:bold;font-stretch:normal;font-size:20.00000191px;line-height:125%;font-family:Sawasdee;-inkscape-font-specification:'Sawasdee, Bold';text-align:start;letter-spacing:0px;word-spacing:0px;writing-mode:lr-tb;text-anchor:start;fill:#484848;fill-opacity:1;stroke:none;stroke-width:1px;stroke-linecap:butt;stroke-linejoin:miter;stroke-opacity:1"
       id="text4270"
       transform="translate(0,-10.500948)">
      <path
         d="m 58.026192,1035.0614 1.572266,0 3.955078,10.1367 4.111329,-10.2832 4.130859,10.2832 3.906251,-10.1367 1.640625,0 -5.566407,14.7266 -4.072266,-10.2051 -4.082032,10.2051 -5.595703,-14.7266 z"
         style="fill:#484848;fill-opacity:1"
         id="path4417"
         inkscape:connector-curvature="0" />
      <path
         d="m 80.496897,1049.6415 -1.552734,0 0,-14.5801 1.552734,0 0,14.5801 z"
         style="fill:#484848;fill-opacity:1"
         id="path4419"
         inkscape:connector-curvature="0" />
      <path
         d="m 83.416819,1035.0614 10.429688,0 -8.896485,13.0762 8.916017,0 -0.507813,1.5039 -11.269532,0 8.867188,-13.0762 -8.066407,0 0.527344,-1.5039 z"
         style="fill:#484848;fill-opacity:1"
         id="path4421"
         inkscape:connector-curvature="0" />
      <path
         d="m 98.494946,1043.8016 4.736324,0 -2.38281,-5 -2.353514,5 z m -0.712891,1.5039 -1.806641,4.3164 -1.660156,0 6.513672,-14.707 6.51367,14.707 -1.66992,0 -1.83594,-4.3164 -6.054685,0 z"
         style="fill:#484848;fill-opacity:1"
         id="path4423"
         inkscape:connector-curvature="0" />
      <path
         d="m 108.94416,1049.6415 0,-14.5801 5.41993,0 q 1.67968,0 2.85156,1.1914 1.17187,1.1816 1.17187,2.8516 0,1.3281 -0.77148,2.3828 -0.76172,1.0449 -1.98242,1.4453 l 3.7793,6.709 -1.76758,0 -3.67188,-6.5332 -3.47656,0 0,6.5332 -1.55274,0 z m 1.55274,-8.0469 3.91601,0 q 0.98633,0 1.69922,-0.7227 0.72266,-0.7324 0.72266,-1.7675 0,-1.0547 -0.72266,-1.7969 -0.72265,-0.7422 -1.74804,-0.7422 l -3.86719,0 0,5.0293 z"
         style="fill:#484848;fill-opacity:1"
         id="path4425"
         inkscape:connector-curvature="0" />
      <path
         d="m 122.52815,1048.1376 1.67969,0 q 1.66015,0 3.04687,-0.752 1.38672,-0.7617 2.19727,-2.0898 0.81054,-1.3281 0.81054,-2.9297 0,-1.6113 -0.81054,-2.9395 -0.81055,-1.3379 -2.19727,-2.0996 -1.38672,-0.7617 -3.04687,-0.7617 l -1.67969,0 0,11.5723 z m -1.55274,1.5039 0,-14.5801 3.23243,0 q 2.06054,0 3.79883,0.9668 1.74804,0.957 2.76367,2.6367 1.02539,1.6797 1.02539,3.7012 0,2.0117 -1.02539,3.6914 -1.01563,1.6699 -2.76367,2.6269 -1.73829,0.9571 -3.79883,0.9571 l -3.23243,0 z"
         style="fill:#484848;fill-opacity:1"
         id="path4427"
         inkscape:connector-curvature="0" />
      <path
         d="m 142.58675,1038.0594 -1.45508,0.4981 -0.10742,-0.3223 q -0.3125,-0.8789 -0.9961,-1.3379 -0.68359,-0.4589 -1.49414,-0.4589 -0.94726,0 -1.54297,0.6054 -0.5957,0.5957 -0.5957,1.4551 0,0.459 0.23438,0.8301 0.24414,0.3711 0.64453,0.6347 0.40039,0.2637 0.92773,0.5079 0.52734,0.2343 1.10352,0.4785 0.57617,0.2343 1.15234,0.498 0.57617,0.2539 1.10352,0.6153 0.52734,0.3515 0.92773,0.791 0.40039,0.4297 0.63477,1.0644 0.24414,0.625 0.24414,1.3867 0,1.2989 -0.69336,2.3536 -0.69336,1.0449 -1.79688,1.6015 -1.10351,0.5469 -2.36328,0.5469 -0.83008,0 -1.5918,-0.2637 -0.76171,-0.2636 -1.42578,-0.7812 -0.65429,-0.5176 -1.12304,-1.377 -0.46875,-0.8691 -0.625,-1.9824 l -0.0488,-0.332 1.5332,-0.1856 0.0488,0.3125 q 0.11719,0.791 0.42969,1.4063 0.3125,0.6054 0.75195,0.9668 0.43945,0.3515 0.95703,0.5371 0.51758,0.1758 1.09375,0.1758 1.33789,0 2.32422,-0.8399 0.99609,-0.8398 0.99609,-2.1777 0,-0.7227 -0.39062,-1.2696 -0.38086,-0.5468 -0.99609,-0.8886 -0.60547,-0.3516 -1.34766,-0.6543 -0.74219,-0.3125 -1.49414,-0.6446 -0.74219,-0.332 -1.35742,-0.7421 -0.60547,-0.4102 -0.9961,-1.0645 -0.38086,-0.6641 -0.38086,-1.5332 0,-1.4746 1.02539,-2.5098 1.02539,-1.0449 2.63672,-1.0449 1.2793,0 2.37305,0.7422 1.09375,0.7422 1.5625,2.0898 l 0.11719,0.3125 z"
         style="fill:#484848;fill-opacity:1"
         id="path4429"
         inkscape:connector-curvature="0" />
    </g>
  </g>
</svg>
